<?xml version="1.0" encoding="utf-8"?>
<!-- Generator: Adobe Illustrator 23.1.1, SVG Export Plug-In . SVG Version: 6.00 Build 0)  -->
<svg version="1.1" id="Capa_1" xmlns="http://www.w3.org/2000/svg" xmlns:xlink="http://www.w3.org/1999/xlink" x="0px" y="0px"
	 viewBox="0 0 10 10" style="enable-background:new 0 0 10 10;" xml:space="preserve">
<style type="text/css">
	.st0{fill:#89A4A6;}
	.st1{fill:#6C8183;}
	.st2{fill:#A0C0C2;}
</style>
<g transform="matrix( 1, 0, 0, 1, 0,0) ">
	<g>
		<g id="Layer0_35_FILL">
			<path class="st0" d="M10,9.3V1.1c0-0.5-0.3-0.7-0.8-0.7H0.8C0.3,0.3,0,0.6,0,1.1v8.2C0,9.8,0.3,10,0.8,10h8.4
				C9.7,10,10,9.8,10,9.3 M8.9,1.7c0,0.2-0.1,0.3-0.2,0.4C8.6,2.3,8.5,2.3,8.3,2.3S8,2.3,7.8,2.2C7.7,2,7.7,1.9,7.7,1.7
				s0.1-0.3,0.2-0.4C8,1.2,8.1,1.1,8.3,1.1s0.3,0.1,0.4,0.2C8.8,1.4,8.9,1.5,8.9,1.7 M1.3,1.3c0.1-0.1,0.3-0.2,0.4-0.2
				S2,1.2,2.2,1.3c0.1,0.1,0.2,0.3,0.2,0.4S2.3,2,2.2,2.2C2,2.3,1.9,2.3,1.7,2.3S1.4,2.3,1.3,2.2C1.2,2,1.1,1.9,1.1,1.7
				S1.2,1.4,1.3,1.3 M1.3,7.8c0.1-0.1,0.3-0.2,0.4-0.2S2,7.7,2.2,7.8C2.3,8,2.3,8.1,2.3,8.3S2.3,8.6,2.2,8.7C2,8.8,1.9,8.9,1.7,8.9
				S1.4,8.8,1.3,8.7C1.2,8.6,1.1,8.5,1.1,8.3S1.2,8,1.3,7.8 M7.8,8.7C7.7,8.6,7.7,8.5,7.7,8.3S7.7,8,7.8,7.8C8,7.7,8.1,7.7,8.3,7.7
				s0.3,0.1,0.4,0.2C8.8,8,8.9,8.1,8.9,8.3S8.8,8.6,8.7,8.7C8.6,8.8,8.5,8.9,8.3,8.9S8,8.8,7.8,8.7z"/>
			<path class="st1" d="M7.7,8.3c0,0.2,0.1,0.3,0.2,0.4C8,8.8,8.1,8.9,8.3,8.9s0.3-0.1,0.4-0.2c0.1-0.1,0.2-0.3,0.2-0.4
				S8.8,8,8.7,7.8C8.6,7.7,8.5,7.7,8.3,7.7S8,7.7,7.8,7.8C7.7,8,7.7,8.1,7.7,8.3 M1.7,7.7c-0.2,0-0.3,0.1-0.4,0.2
				C1.2,8,1.1,8.1,1.1,8.3s0.1,0.3,0.2,0.4c0.1,0.1,0.3,0.2,0.4,0.2S2,8.8,2.2,8.7c0.1-0.1,0.2-0.3,0.2-0.4S2.3,8,2.2,7.8
				C2,7.7,1.9,7.7,1.7,7.7 M1.7,1.1c-0.2,0-0.3,0.1-0.4,0.2C1.2,1.4,1.1,1.5,1.1,1.7S1.2,2,1.3,2.2c0.1,0.1,0.3,0.2,0.4,0.2
				S2,2.3,2.2,2.2C2.3,2,2.3,1.9,2.3,1.7S2.3,1.4,2.2,1.3C2,1.2,1.9,1.1,1.7,1.1 M8.7,2.2C8.8,2,8.9,1.9,8.9,1.7S8.8,1.4,8.7,1.3
				C8.6,1.2,8.5,1.1,8.3,1.1S8,1.2,7.8,1.3C7.7,1.4,7.7,1.5,7.7,1.7S7.7,2,7.8,2.2C8,2.3,8.1,2.3,8.3,2.3S8.6,2.3,8.7,2.2z"/>
			<path class="st2" d="M10,1.1V0.8C10,0.3,9.7,0,9.2,0H0.8C0.3,0,0,0.3,0,0.8v0.3c0-0.5,0.3-0.7,0.8-0.7h8.4C9.7,0.3,10,0.6,10,1.1
				z"/>
		</g>
	</g>
</g>
</svg>
